<?xml version="1.0" encoding="iso-8859-1"?>
<!-- Uploaded to: SVG Repo, www.svgrepo.com, Generator: SVG Repo Mixer Tools -->
<svg height="800px" width="800px" version="1.1" id="Capa_1" xmlns="http://www.w3.org/2000/svg" xmlns:xlink="http://www.w3.org/1999/xlink" 
	 viewBox="0 0 469.141 469.141" xml:space="preserve">
<g>
	<path style="fill:#FF6E1D;" d="M166.461,420.422l58.953-84.189l-19.435-27.754c-0.025-0.035-0.055-0.064-0.079-0.1
		c-0.059-0.085-0.112-0.173-0.171-0.258l-5.401-7.714c-15.693,14.371-39.995,16.57-59.335,4.157
		c-16.845-10.811-37.22-14.071-57.373-9.173c-21.669,5.264-40.505,19.382-51.678,38.733c-10.685,18.507-13.523,40.066-7.993,60.708
		s18.769,37.894,37.276,48.578C97.229,464.197,142.471,454.315,166.461,420.422z M100.569,439.984
		c-11.352-0.001-22.571-3.016-32.448-8.718c-15.035-8.681-25.79-22.696-30.284-39.467c-4.493-16.77-2.187-34.285,6.494-49.32
		c11.577-20.052,33.166-32.508,56.342-32.508c11.348,0,22.567,3.015,32.445,8.718c15.035,8.681,25.79,22.696,30.284,39.467
		c4.493,16.77,2.188,34.285-6.493,49.32C145.331,427.528,123.743,439.984,100.569,439.984z"/>
	<path style="fill:#F2484B;" d="M385.523,295.391c-20.152-4.896-40.528-1.638-57.374,9.173
		c-22.352,14.349-51.342,9.191-65.996-11.738l-11.203-16c-6.327-9.029-18.82-11.229-27.851-4.906
		c-8.991,6.296-11.209,18.702-4.993,27.725l84.596,120.81c23.968,33.862,69.21,43.746,105.215,22.958
		c18.507-10.685,31.745-27.937,37.276-48.578s2.692-42.202-7.993-60.709C426.027,314.773,407.192,300.655,385.523,295.391z
		 M239.88,293.592c-0.308,0.31-0.641,0.6-1.01,0.859c-1.784,1.247-3.924,1.603-5.898,1.172c-1.777-0.388-3.42-1.41-4.546-3.018
		c-2.376-3.394-1.551-8.069,1.842-10.445c0.555-0.389,1.147-0.684,1.755-0.903c1.632-0.592,3.395-0.586,4.993-0.035
		c1.445,0.497,2.754,1.432,3.698,2.78C242.832,287.026,242.401,291.066,239.88,293.592z M431.304,391.8
		c-4.494,16.771-15.249,30.786-30.284,39.467c-9.878,5.703-21.097,8.718-32.445,8.718c-23.176,0-44.766-12.456-56.342-32.508
		c-8.681-15.035-10.986-32.551-6.493-49.32c4.494-16.771,15.249-30.786,30.284-39.467c9.878-5.703,21.097-8.718,32.445-8.718
		c23.176,0,44.765,12.456,56.342,32.508C433.491,357.514,435.797,375.03,431.304,391.8z"/>
	<path style="fill:#98D9D5;" d="M243.726,240.358l19.506,27.858c0.013,0.018,4.905,7.005,4.905,7.005L404.983,79.799
		c7.277-10.394,10.072-22.998,7.869-35.493c-1.763-9.998-6.556-18.967-13.726-25.881L243.726,240.358z"/>
	<path style="fill:#FFFFFF;" d="M105.969,69.771L70.016,18.426c-7.169,6.914-11.962,15.883-13.726,25.88
		c-2.203,12.495,0.591,25.1,7.869,35.493L201.73,276.26c2.373-6.501,6.679-12.365,12.765-16.627
		c6.089-4.263,13.075-6.304,19.998-6.309L123.176,94.346c-2.376-3.393-1.551-8.069,1.842-10.445l-8.604-12.287
		C113.023,73.99,108.345,73.165,105.969,69.771z"/>
	<path style="fill:#082947;" d="M163.401,358.156c-4.494-16.771-15.249-30.786-30.284-39.467
		c-9.878-5.703-21.097-8.718-32.445-8.718c-23.176,0-44.765,12.456-56.342,32.508c-8.681,15.035-10.987,32.551-6.494,49.32
		c4.494,16.771,15.249,30.786,30.284,39.467c9.877,5.702,21.096,8.717,32.444,8.718c23.178,0,44.766-12.456,56.343-32.508
		C165.589,392.441,167.894,374.926,163.401,358.156z M75.621,418.276c-11.565-6.678-19.838-17.459-23.294-30.358
		c-3.457-12.899-1.683-26.373,4.995-37.938c8.906-15.425,25.517-25.008,43.352-25.008c8.718,0,17.344,2.319,24.945,6.708
		c11.565,6.677,19.838,17.459,23.295,30.358c3.456,12.899,1.683,26.373-4.995,37.938c-8.907,15.426-25.518,25.009-43.352,25.008
		C91.847,424.983,83.221,422.664,75.621,418.276z"/>
	<path style="fill:#082947;" d="M368.469,309.971c-11.348,0-22.567,3.015-32.445,8.718c-15.035,8.681-25.79,22.696-30.284,39.467
		c-4.493,16.77-2.188,34.285,6.493,49.32c11.577,20.052,33.166,32.508,56.342,32.508c11.348,0,22.567-3.015,32.445-8.718
		c15.035-8.681,25.79-22.696,30.284-39.467c4.493-16.77,2.187-34.285-6.494-49.32C413.234,322.428,391.645,309.971,368.469,309.971z
		 M416.815,387.918c-3.456,12.899-11.729,23.681-23.294,30.358c-7.601,4.388-16.227,6.708-24.945,6.708
		c-17.834,0-34.446-9.583-43.352-25.008c-6.677-11.565-8.451-25.039-4.995-37.938c3.457-12.899,11.729-23.682,23.295-30.358
		c7.601-4.389,16.227-6.708,24.945-6.708c17.834,0,34.446,9.583,43.352,25.008C418.497,361.545,420.271,375.018,416.815,387.918z"/>
	<path style="fill:#082947;" d="M450.19,326.625c-13.212-22.886-35.493-39.582-61.126-45.81
		c-24.177-5.873-48.687-1.922-69.017,11.126c-14.091,9.042-31.856,7.11-42.525-3.972L417.27,88.402
		c9.576-13.675,13.252-30.261,10.354-46.701c-2.899-16.441-12.027-30.77-25.702-40.345c-1.629-1.141-3.646-1.588-5.604-1.242
		c-1.959,0.345-3.701,1.454-4.841,3.084L234.57,227.283L135.463,85.742c-2.375-3.393-7.052-4.218-10.445-1.842
		c-3.393,2.376-4.218,7.053-1.842,10.445l111.317,158.979c-6.923,0.005-13.909,2.046-19.998,6.309
		c-6.086,4.262-10.392,10.126-12.765,16.627L64.159,79.799c-7.277-10.394-10.072-22.998-7.869-35.493
		c1.763-9.997,6.556-18.966,13.726-25.88l35.953,51.346c2.376,3.394,7.054,4.219,10.445,1.842c3.393-2.376,4.218-7.053,1.842-10.445
		L77.665,3.199c-2.376-3.394-7.052-4.217-10.445-1.842c-13.675,9.575-22.803,23.903-25.702,40.344s0.778,33.026,10.354,46.701
		L191.619,287.97c-10.668,11.083-28.433,13.014-42.524,3.972c-20.33-13.049-44.84-16.999-69.015-11.126
		c-25.635,6.227-47.915,22.924-61.128,45.81c-12.688,21.977-16.059,47.579-9.491,72.09c6.568,24.512,22.288,44.999,44.265,57.687
		c14.571,8.413,30.902,12.74,47.427,12.739c6.877,0,13.79-0.749,20.621-2.266c23.095-5.127,43.313-18.547,56.954-37.818
		l55.844-79.749l55.867,79.781c13.618,19.24,33.837,32.66,56.932,37.787c6.833,1.517,13.742,2.267,20.622,2.266
		c16.523,0,32.856-4.327,47.427-12.739c21.977-12.688,37.697-33.175,44.265-57.687S462.879,348.601,450.19,326.625z
		 M445.193,394.834c-5.531,20.642-18.769,37.894-37.276,48.578c-36.005,20.788-81.247,10.904-105.215-22.958l-84.596-120.81
		c-6.215-9.022-3.997-21.429,4.993-27.725c9.03-6.323,21.523-4.123,27.851,4.906l11.203,16
		c14.654,20.93,43.645,26.087,65.996,11.738c16.846-10.811,37.222-14.068,57.374-9.173c21.669,5.264,40.504,19.382,51.677,38.733
		C447.885,352.632,450.724,374.192,445.193,394.834z M61.225,443.411c-18.507-10.685-31.745-27.937-37.276-48.578
		s-2.692-42.201,7.993-60.708c11.173-19.352,30.009-33.47,51.678-38.733c20.153-4.898,40.528-1.638,57.373,9.173
		c19.341,12.413,43.643,10.214,59.335-4.157l5.401,7.714c0.059,0.085,0.111,0.173,0.171,0.258c0.025,0.035,0.054,0.064,0.079,0.1
		l19.435,27.754l-58.953,84.189C142.471,454.315,97.229,464.197,61.225,443.411z M404.983,79.799L268.137,275.221l-4.892-6.987
		c-0.013-0.018-19.519-27.876-19.519-27.876l155.4-221.934c7.169,6.914,11.962,15.883,13.726,25.881
		C415.055,56.801,412.26,69.405,404.983,79.799z"/>
	<path style="fill:#082947;" d="M237.016,281.221c-1.598-0.551-3.36-0.556-4.993,0.035c-0.608,0.22-1.2,0.515-1.755,0.903
		c-3.393,2.376-4.218,7.052-1.842,10.445c1.125,1.607,2.769,2.63,4.546,3.018c1.974,0.431,4.114,0.074,5.9-1.176
		c0.369-0.258,0.701-0.548,1.008-0.855c2.521-2.525,2.952-6.565,0.834-9.59C239.771,282.653,238.461,281.719,237.016,281.221z"/>
</g>
</svg>